PathFileType        4      (X/Y/Z)      C:\Users\pc\Desktop\IMUTRC\Sujet_06\Sujet_06_velo_60.trc         
DataRate	CameraRate	NumFrames	NumMarkers	Units	OrigDataRate	OrigDataStartFrame	OrigNumFrames
60.0	60.0	4	64	mm	60.0	1	936
Frame#	Time	pHipOrigin			pRightASI			pLeftASI			pRightCSI			pLeftCSI			pRightIschialTub			pLeftIschialTub			pSacrum			pL5SpinalProcess			pL3SpinalProcess			pT12SpinalProcess			pIJ			pT4SpinalProcess			pT8SpinalProcess			pPX			pC7SpinalProcess			pTopOfHead			pRightAuricularis			pLeftAuricularis			pBackOfHead			pRightAcromion			pLeftAcromion			pRightArmLatEpicondyle			pRightArmMedEpicondyle			pLeftArmLatEpicondyle			pLeftArmMedEpicondyle			pRightUlnarStyloid			pRightRadialStyloid			pRightOlecranon			pLeftUlnarStyloid			pLeftRadialStyloid			pLeftOlecranon			pRightTopOfHand			pRightPinky			pRightBallHand			pLeftTopOfHand			pLeftPinky			pLeftBallHand			pRightGreaterTrochanter			pRightKneeLatEpicondyle			pRightKneeMedEpicondyle			pRightPatella			pLeftGreaterTrochanter			pLeftKneeLatEpicondyle			pLeftKneeMedEpicondyle			pLeftPatella			pRightTibialTub			pRightLatMalleolus			pRightMedMalleolus			pLeftTibialTub			pLeftLatMalleolus			pLeftMedMalleolus			pRightHeelFoot			pRightFirstMetatarsal			pRightFifthMetatarsal			pRightPivotFoot			pRightHeelCenter			pRightToe			pLeftHeelFoot			pLeftFirstMetatarsal			pLeftFifthMetatarsal			pLeftPivotFoot			pLeftHeelCenter			pLeftToe			
		X1	Y1	Z1	X2	Y2	Z2	X3	Y3	Z3	X4	Y4	Z4	X5	Y5	Z5	X6	Y6	Z6	X7	Y7	Z7	X8	Y8	Z8	X9	Y9	Z9	X10	Y10	Z10	X11	Y11	Z11	X12	Y12	Z12	X13	Y13	Z13	X14	Y14	Z14	X15	Y15	Z15	X16	Y16	Z16	X17	Y17	Z17	X18	Y18	Z18	X19	Y19	Z19	X20	Y20	Z20	X21	Y21	Z21	X22	Y22	Z22	X23	Y23	Z23	X24	Y24	Z24	X25	Y25	Z25	X26	Y26	Z26	X27	Y27	Z27	X28	Y28	Z28	X29	Y29	Z29	X30	Y30	Z30	X31	Y31	Z31	X32	Y32	Z32	X33	Y33	Z33	X34	Y34	Z34	X35	Y35	Z35	X36	Y36	Z36	X37	Y37	Z37	X38	Y38	Z38	X39	Y39	Z39	X40	Y40	Z40	X41	Y41	Z41	X42	Y42	Z42	X43	Y43	Z43	X44	Y44	Z44	X45	Y45	Z45	X46	Y46	Z46	X47	Y47	Z47	X48	Y48	Z48	X49	Y49	Z49	X50	Y50	Z50	X51	Y51	Z51	X52	Y52	Z52	X53	Y53	Z53	X54	Y54	Z54	X55	Y55	Z55	X56	Y56	Z56	X57	Y57	Z57	X58	Y58	Z58	X59	Y59	Z59	X60	Y60	Z60	X61	Y61	Z61	X62	Y62	Z62	X63	Y63	Z63	X64	Y64	Z64	
1	0.0	0.0	1249.97291	7.653876616262013E-14	37.280200000000015	1327.87973	129.27718000000007	87.30024999999999	1336.09898	-95.57821999999993	6.986370000000013	1389.46545	106.26326000000009	49.19812999999999	1396.39311	-83.36674999999991	-60.99862999999999	1202.41863	34.520880000000076	-39.92211000000001	1205.88246	-60.29411999999992	-55.65611	1272.63457	-11.565669999999916	-20.78298	1361.57868	-0.6457999999999141	28.94353	1469.6032	9.217310000000086	76.43909	1567.70591	16.614640000000087	324.13228	1647.19787	56.59546000000006	195.14865	1726.22016	31.46801000000008	133.91518	1659.1745	23.953260000000085	244.28807	1552.08932	47.143310000000064	240.00231	1771.77833	37.28020000000008	520.92479	1790.62391	36.69311000000004	421.23694	1782.99174	115.06960000000005	413.89831	1771.24995	-29.00223999999994	409.9061	1833.30534	38.86535000000006	209.64977000000002	1738.2555	219.68901000000008	274.22965	1725.33952	-139.02286999999993	367.75305	1485.9243	219.68901000000002	356.83318	1478.0573	158.10328000000004	443.37022	1489.97522	-155.98975999999996	417.83182	1465.08261	-104.03230999999997	524.74087	1298.11427	268.18262	557.85273	1321.30432	235.36430000000001	343.62366	1473.24316	206.89045000000004	650.67163	1346.13822	-155.93105	660.65216	1364.80767	-108.37678	423.52659	1471.07093	-155.75492999999997	708.55869	1315.13988	231.31338	640.10402	1284.5525	263.77945	571.88418	1291.59757	252.27249000000003	814.29356	1357.17551	-76.49780000000001	756.64134	1337.97767	-131.03844	687.12991	1339.15185	-132.74101	-6.6928199999999824	1224.14096	148.12276000000008	285.97144	983.96252	176.77274000000003	302.93834	986.95667	104.97166000000001	318.14397	1019.1292	145.30473000000003	48.963289999999986	1234.41503	-142.7802399999999	329.88576	983.31672	-96.10659999999999	323.31036	980.90965	-22.66166999999998	351.31454	1014.84344	-53.66000999999998	307.81119	935.99728	142.31057000000004	4.696720000000016	718.59792	127.45720000000004	14.20757000000001	717.30633	69.15918000000005	374.26975	952.72934	-55.656109999999984	298.35904	592.37362	-117.12442	294.01458	588.14657	-58.35673	-75.79328999999998	690.18278	81.19452000000005	32.05510000000002	570.18162	87.88734000000002	13.62048000000002	581.39504	161.15615000000003	36.634400000000014	559.73142	129.33588000000003	-50.90068999999998	664.11599	91.40988000000004	84.42351000000001	504.07531	149.88403000000002	250.21768	511.47264	-87.18284	402.97844	498.43925	-36.34086000000002	409.31901	494.2122	-112.36899000000003	427.5188	494.15349	-71.44883000000003	287.55659	509.71137	-83.95384	503.01855	486.63874	-64.69730000000003	
2	0.017	0.0	1249.97291	7.653876616262013E-14	36.39957000000001	1328.58423	129.10105000000007	87.35895999999998	1336.04027	-95.57821999999993	5.929610000000014	1389.93512	105.73487000000009	48.904579999999996	1396.21698	-83.77771999999992	-60.939919999999994	1202.30122	34.46217000000008	-39.45244000000001	1205.41279	-60.29411999999992	-55.65611	1272.34103	-11.859209999999914	-21.25265	1361.51997	-1.174179999999914	28.06289	1469.77933	8.806350000000087	75.2062	1567.99946	16.379810000000084	322.48843	1648.0198	57.88705000000006	193.44609	1726.80725	32.172520000000084	132.44746	1659.58547	24.129390000000086	242.93776	1552.73512	47.73040000000007	238.18233	1772.48284	38.27826000000008	519.0461	1791.38713	38.45438000000004	419.24083	1783.63754	116.65474000000006	412.19575	1772.18929	-27.41708999999994	408.08612	1834.12727	40.509200000000064	207.18399000000002	1738.2555	220.4522200000001	273.17289	1726.45499	-138.02480999999992	365.87437	1486.33526	219.68901000000002	355.18933	1478.76181	158.04458000000002	441.9025	1490.5036	-155.40266999999997	416.24667	1465.6697	-103.44521999999998	523.03831	1298.64265	267.88908	556.15017	1321.89141	235.12947000000003	341.86239	1473.77154	206.83174000000005	648.73424	1346.19693	-155.98976	658.83218	1364.69026	-108.37678	421.94144	1471.71673	-155.16783999999998	706.85613	1315.49213	231.13726	638.40146	1285.02217	263.60332	570.18162	1292.12596	252.03765000000004	812.47358	1356.70583	-76.55651000000002	754.76266	1337.74283	-131.09715	685.25122	1339.03443	-132.79971	-6.164439999999982	1224.4345	147.94663000000008	294.30812	993.88433	174.89405000000002	310.98147	997.75913	103.09297000000001	325.18904	1030.22519	143.60217000000003	47.96523999999999	1232.3015	-142.7802399999999	316.73495	968.11109	-96.63497999999998	310.45309	966.34982	-23.13133999999998	339.86629	998.75718	-54.423229999999975	314.85626	946.5649	141.13639000000003	8.747640000000017	733.09904	129.62943000000007	18.141080000000006	730.98552	71.33141000000005	361.35378	938.58047	-56.12578999999999	289.02431	577.63766	-118.47472	284.62114	573.23449	-59.64832	-72.15333999999999	705.27098	83.89513000000005	34.69701000000001	584.27178	88.59185000000004	17.08431000000002	595.01552	162.15420000000003	39.628560000000014	573.46932	129.98168000000004	-47.319439999999986	678.91065	93.69953000000004	87.06542000000002	517.22612	149.59048000000004	240.5894	496.8541	-88.35702	393.17404	483.35104	-37.221490000000024	399.63203	478.88916	-113.19091000000002	417.77311	478.88916	-72.21205000000003	277.86961	494.97542	-85.06931	493.21415	471.08086	-65.34310000000004	
3	0.033	0.0	1249.97291	7.653876616262013E-14	35.460220000000014	1329.28874	128.92492000000007	87.35895999999998	1335.98156	-95.57821999999993	4.872850000000012	1390.40479	105.14778000000008	48.66973999999999	1396.09956	-84.18867999999992	-60.881209999999996	1202.1838	34.40346000000008	-39.041470000000004	1205.00183	-60.29411999999992	-55.71482	1272.04748	-12.211469999999915	-21.72232	1361.46126	-1.7025599999999141	27.18226	1469.89675	8.336680000000086	74.03202	1568.293	16.144970000000086	320.84458	1648.84172	59.11994000000006	191.74353	1727.39434	32.818320000000085	130.97974	1660.05514	24.364230000000084	241.58746	1553.43963	48.37620000000006	236.36236	1773.18734	39.33502000000008	517.22612	1792.15034	40.21565000000004	417.30343	1784.28334	118.23989000000006	410.43448	1773.12863	-25.83194999999994	406.26615	1834.89048	42.21176000000006	204.77692000000002	1738.31421	221.2154400000001	272.05742	1727.57047	-137.0854699999999	364.05439	1486.80494	219.63030000000003	353.48677	1479.46631	157.98587000000003	440.37606	1491.03198	-154.81557999999998	414.72024	1466.19808	-102.91683999999997	521.33575	1299.17103	267.59553	554.44761	1322.4785	234.89463000000003	340.10113	1474.29992	206.77303000000006	646.85555	1346.25564	-155.98976	657.07091	1364.57284	-108.37678	420.3563	1472.36253	-154.63945999999999	705.15357	1315.84438	230.96113	636.64019	1285.49184	263.36849	568.47906	1292.65434	251.74411000000003	810.65361	1356.23616	-76.61522000000001	752.88397	1337.508	-131.21457	683.37254	1338.97572	-132.79971	-5.636059999999982	1224.78675	147.77050000000008	302.29254	1004.0997	173.07408000000004	318.67235	1008.79642	101.27299000000001	331.94058	1041.55603	141.84090000000003	46.90847999999998	1230.3054	-142.83894999999993	302.82092	953.60997	-97.04594999999999	296.95002	952.43579	-23.483589999999978	327.65482	983.25801	-55.127729999999985	321.84263	957.19122	140.02092000000002	12.915980000000015	747.77629	131.80166000000006	22.07458000000001	744.84084	73.50364000000005	348.4378	924.43161	-56.59545999999999	279.68958	562.96042	-119.76632	275.28641	558.38112	-60.99863	-68.39595999999999	720.30048	86.59575000000005	37.39762000000002	598.36193	89.35507000000004	20.54814000000002	608.69471	163.15226000000004	42.56401000000002	587.14852	130.56877000000003	-43.79689999999999	693.64661	95.98918000000005	89.70732000000001	530.31822	149.29694000000003	230.90242	482.29428	-89.5312	383.31093	468.32154	-38.04342000000002	389.94505	463.56611	-114.01284000000001	407.96871	463.62482	-73.03397000000002	268.18262	480.23946	-86.18478	483.40975	455.52298	-65.98889000000003	
4	0.05	0.0	1249.97291	7.653876616262013E-14	34.57959000000002	1329.93454	128.8075000000001	87.53508999999998	1335.92286	-95.51950999999993	3.933500000000013	1390.87446	104.61940000000008	48.611039999999996	1395.92343	-84.54092999999992	-60.939919999999994	1202.12509	34.28604000000008	-38.57180000000001	1204.64957	-60.29411999999992	-55.71482	1271.81265	-12.563719999999915	-22.01587	1361.40255	-2.2309399999999138	26.53646	1470.01417	7.925710000000086	73.15139	1568.52784	15.910130000000088	319.55298	1649.42881	60.17671000000006	190.51064	1727.8053	33.346700000000084	129.92297	1660.40739	24.481640000000088	240.53069	1553.9093	48.90458000000007	235.07076	1773.59831	40.15694000000008	515.87581	1792.73743	41.85950000000004	415.83571	1784.6943	119.70761000000006	409.2016	1773.83314	-24.42293999999994	404.91584	1835.47757	43.73819000000007	202.83953000000002	1738.2555	221.8612400000001	271.41162	1728.4511	-136.26353999999992	362.76279	1487.2159	219.57159000000001	352.3713	1480.11211	157.80974000000003	439.43672	1491.50165	-154.28719999999998	413.72219	1466.66776	-102.38845999999997	520.10286	1299.64071	267.3607	553.27343	1322.94817	234.71850000000003	338.92695	1474.76959	206.65561000000005	645.56395	1346.31434	-155.98976	655.89673	1364.51413	-108.37678	419.35825	1472.89091	-154.11106999999998	703.97939	1316.07922	230.90242	635.4073	1285.84409	263.30978	567.24617	1293.0653	251.62669000000002	809.42072	1356.06004	-76.73264000000002	751.59237	1337.44929	-131.33199	682.08094	1338.97572	-132.85842	-5.048969999999982	1225.31514	147.5943800000001	310.10084	1014.90215	171.60635000000002	326.06968	1020.30338	99.74656000000002	338.33986	1053.41524	140.37317000000002	45.91041999999999	1228.66155	-142.83894999999993	289.37657	940.75271	-97.92657999999997	283.79921	939.98949	-24.30551999999998	315.7369	969.34398	-56.184489999999975	329.00513	968.34593	138.90545000000003	18.610750000000017	760.98581	133.44551000000007	27.59322000000001	757.46327	75.14750000000004	335.9915	911.63305	-57.652219999999986	269.82648	549.69219	-120.9405	265.54072	544.99547	-62.17281	-62.93602999999999	733.21646	88.76798000000005	42.916260000000015	611.27791	90.47054000000004	26.536460000000023	621.37585	164.38515000000004	48.37620000000001	599.94707	131.62553000000003	-38.219549999999984	706.50387	97.86787000000004	95.69564000000001	543.11678	149.82532000000003	220.2761	469.43701	-90.41183	372.44977	454.11397	-38.630510000000015	379.1426	449.00628	-114.54122000000001	397.10755	449.06499	-73.50364000000002	257.49759	466.97123	-87.00671	472.43117	440.19994	-66.28244000000002	
